<svg xmlns="http://www.w3.org/2000/svg" viewBox="0 0 837.9 835.79"><defs><style>.cls-1{fill:#134485;}.cls-2{fill:#b7bbc2;}</style></defs><title>form-logo</title><g id="Layer_2" data-name="Layer 2"><g id="Layer_1-2" data-name="Layer 1"><path class="cls-1" d="M71.22,599.68a199.52,199.52,0,0,1,172.5-99.07s222.14,0,229.69-.1c55.44-3.69,56.82-53.22,56.53-63.13-.29-10.16-4.68-61-62.06-61H202.25l64.8-111.84H467.88c26,0,50.49,4.83,72.68,14.41a162.32,162.32,0,0,1,55.73,39.61c28.23,30.79,44.48,71.88,45.75,115.7,1.27,43.59-12.44,85.27-38.62,117.36a160.74,160.74,0,0,1-53,42.45C529,604.8,505,611,479.17,612.51c-.65,0-2,.07-4,.11l.26.72-216.27.1h-.11a114,114,0,0,0-98.39,56.15L64.68,834,.5,722.79l-.5-.91Z"/><path class="cls-2" d="M467.88,234H425.52L355,112,419.77,0l150,259.59c-5.57-3.09-11.31-6-17.21-8.57A212.36,212.36,0,0,0,467.88,234"/><path class="cls-2" d="M626.82,570.7c30-36.8,46.08-84.11,45.47-133.61L837.4,722.84l.5.87L773.14,835.79,622.75,575.51q2.07-2.37,4.07-4.81"/><polygon class="cls-2" points="584.91 721.52 248.84 721.52 170.09 835.79 667.81 835.79 584.91 721.52"/></g></g></svg>