<svg xmlns="http://www.w3.org/2000/svg" xmlns:xlink="http://www.w3.org/1999/xlink" viewBox="0 0 473.1 112.25"><defs><style>.cls-1{fill:none;}.cls-2{clip-path:url(#clip-path);}.cls-3{fill:#134485;}.cls-4{fill:#b7bbc2;}</style><clipPath id="clip-path" transform="translate(-12.58 -10.44)"><rect class="cls-1" width="498.27" height="133.12"/></clipPath></defs><title>PintecExport</title><g id="Layer_2" data-name="Layer 2"><g id="Layer_1-2" data-name="Layer 1"><g class="cls-2"><path class="cls-3" d="M22.15,91a26.82,26.82,0,0,1,23.17-13.3s29.83,0,30.84,0c7.45-.49,7.63-7.14,7.59-8.47S83.13,61,75.42,61H39.75l8.7-15h27a24.4,24.4,0,0,1,9.76,1.94,21.82,21.82,0,0,1,7.49,5.32,24.47,24.47,0,0,1,1,31.3,21.69,21.69,0,0,1-7.12,5.7,24.57,24.57,0,0,1-9.56,2.48H76.4l0,.1H47.38a15.31,15.31,0,0,0-13.22,7.54L21.27,122.44,12.65,107.5l-.07-.12Z" transform="translate(-12.58 -10.44)"/><path class="cls-4" d="M75.42,41.85H69.73L60.26,25.48l8.7-15L89.1,45.3a24.83,24.83,0,0,0-2.31-1.15,28.38,28.38,0,0,0-11.37-2.3" transform="translate(-12.58 -10.44)"/><path class="cls-4" d="M96.76,87.08a27.8,27.8,0,0,0,6.11-17.94l22.18,38.37.06.12-8.7,15.05-20.19-35c.18-.21.37-.42.54-.64" transform="translate(-12.58 -10.44)"/><polygon class="cls-4" points="78.55 96.9 33.42 96.9 22.84 112.25 89.69 112.25 78.55 96.9"/><path class="cls-3" d="M136.42,89.52V48h19.63a13.23,13.23,0,0,1,5.24,1,11.54,11.54,0,0,1,4,2.71,12,12,0,0,1,2.53,4.19,16.83,16.83,0,0,1,0,10.8,11.86,11.86,0,0,1-2.53,4.16,11.4,11.4,0,0,1-4,2.71,13.23,13.23,0,0,1-5.24,1H145.46v15Zm9-22.85H155a4.64,4.64,0,0,0,3.19-1,3.91,3.91,0,0,0,1.16-3.06V60a3.94,3.94,0,0,0-1.16-3.07,4.64,4.64,0,0,0-3.19-1h-9.52Z" transform="translate(-12.58 -10.44)"/><path class="cls-3" d="M179.38,55a5.34,5.34,0,0,1-3.9-1.22,4.23,4.23,0,0,1-1.22-3.13V49.3a4.27,4.27,0,0,1,1.22-3.13,6.83,6.83,0,0,1,7.79,0,4.23,4.23,0,0,1,1.22,3.13v1.3a4.2,4.2,0,0,1-1.22,3.13A5.33,5.33,0,0,1,179.38,55M175,58.28h8.81V89.52H175Z" transform="translate(-12.58 -10.44)"/><path class="cls-3" d="M192,89.52V58.28h8.81v5.3h.35a9.61,9.61,0,0,1,2.92-4.23,8.59,8.59,0,0,1,5.77-1.78q4.82,0,7.29,3.21c1.65,2.14,2.47,5.2,2.47,9.16V89.52h-8.81V70.66a8.44,8.44,0,0,0-.95-4.5,3.73,3.73,0,0,0-3.39-1.45,8,8,0,0,0-2.08.27,5.09,5.09,0,0,0-1.82.86,4.56,4.56,0,0,0-1.28,1.45,4.08,4.08,0,0,0-.47,2V89.52Z" transform="translate(-12.58 -10.44)"/><path class="cls-3" d="M238.4,89.52q-4.58,0-6.93-2.32t-2.35-6.79V65.12h-4.4V58.28h2.2a2.93,2.93,0,0,0,2.44-.86A4.08,4.08,0,0,0,230,55V49.83h7.92v8.45h6.18v6.84h-6.18V82.68h5.71v6.84Z" transform="translate(-12.58 -10.44)"/><path class="cls-3" d="M263,90.23a16.32,16.32,0,0,1-6.36-1.16,13,13,0,0,1-4.73-3.27A13.83,13.83,0,0,1,249,80.65a24,24,0,0,1,0-13.47A14.28,14.28,0,0,1,251.82,62a12.42,12.42,0,0,1,4.61-3.3,15.76,15.76,0,0,1,6.25-1.16,15.25,15.25,0,0,1,6.63,1.31,12.41,12.41,0,0,1,4.52,3.51,14,14,0,0,1,2.56,5.08,22.29,22.29,0,0,1,.81,6v2.62H257.14v.47a6.89,6.89,0,0,0,1.67,4.87q1.67,1.8,5.24,1.8a8.21,8.21,0,0,0,4.46-1.09,17.27,17.27,0,0,0,3.21-2.63L276.13,85a13.89,13.89,0,0,1-5.45,3.82A20,20,0,0,1,263,90.23m-.17-26.18a5.26,5.26,0,0,0-4.2,1.76,6.89,6.89,0,0,0-1.52,4.67V71h10.95v-.53a7.58,7.58,0,0,0-1.28-4.61,4.56,4.56,0,0,0-3.95-1.76" transform="translate(-12.58 -10.44)"/><path class="cls-3" d="M296.06,90.23a15.76,15.76,0,0,1-6.25-1.16,12.3,12.3,0,0,1-4.58-3.27,14.2,14.2,0,0,1-2.8-5.15,22.72,22.72,0,0,1-.95-6.78,22.42,22.42,0,0,1,.95-6.75,14.54,14.54,0,0,1,2.8-5.15,11.87,11.87,0,0,1,4.58-3.27,16.13,16.13,0,0,1,6.25-1.13A13.89,13.89,0,0,1,304,59.71a11.73,11.73,0,0,1,4.55,6l-7.14,3.09a6,6,0,0,0-1.72-3,5.08,5.08,0,0,0-3.63-1.25A4.81,4.81,0,0,0,292,66.28,7.47,7.47,0,0,0,290.64,71v5.82A7.45,7.45,0,0,0,292,81.52a4.81,4.81,0,0,0,4.05,1.75,5,5,0,0,0,3.89-1.4,9.24,9.24,0,0,0,1.94-3.3l6.84,3a12.25,12.25,0,0,1-4.79,6.58,14.19,14.19,0,0,1-7.88,2.1" transform="translate(-12.58 -10.44)"/><path class="cls-4" d="M356.57,83.5h-.18a8.22,8.22,0,0,1-3.78,4.81,14.19,14.19,0,0,1-7.76,1.92,17,17,0,0,1-7-1.4,14.72,14.72,0,0,1-5.45-4.1A19.63,19.63,0,0,1,328.87,78a30.54,30.54,0,0,1-1.28-9.25,31,31,0,0,1,1.25-9.19,18.57,18.57,0,0,1,3.57-6.72A15.33,15.33,0,0,1,338,48.7a18.05,18.05,0,0,1,7.26-1.43,16.71,16.71,0,0,1,9.35,2.47,16.5,16.5,0,0,1,5.77,6.58l-4.11,2.5a11.37,11.37,0,0,0-11-7.14,12.45,12.45,0,0,0-5,1,11.31,11.31,0,0,0-3.9,2.78,12.42,12.42,0,0,0-2.53,4.3,16.51,16.51,0,0,0-.89,5.61V72.1a16.77,16.77,0,0,0,.89,5.64,12.47,12.47,0,0,0,2.53,4.33,11.09,11.09,0,0,0,4,2.77,13.87,13.87,0,0,0,5.36,1,14.37,14.37,0,0,0,4.08-.57,10.2,10.2,0,0,0,3.39-1.7,8.06,8.06,0,0,0,2.29-2.84,9.19,9.19,0,0,0,.83-4V72.56h-9.16v-4.4h14V89.52h-4.64Z" transform="translate(-12.58 -10.44)"/><path class="cls-4" d="M370.55,89.52V58.82h4.76v5.65h.3a9.27,9.27,0,0,1,3-3.93,9.16,9.16,0,0,1,5.89-1.72h1.85v4.76h-2.8a10.77,10.77,0,0,0-6,1.45,4.31,4.31,0,0,0-2.17,3.66V89.52Z" transform="translate(-12.58 -10.44)"/><path class="cls-4" d="M403.69,90.23A13.74,13.74,0,0,1,398,89.1a12.07,12.07,0,0,1-4.37-3.24,15.17,15.17,0,0,1-2.83-5.06,22.2,22.2,0,0,1,0-13.24,15.08,15.08,0,0,1,2.83-5.08A12.21,12.21,0,0,1,398,59.23a13.9,13.9,0,0,1,5.65-1.13,13.71,13.71,0,0,1,5.63,1.13,12.66,12.66,0,0,1,4.37,3.25,15,15,0,0,1,2.86,5.08,22.2,22.2,0,0,1,0,13.24,15.06,15.06,0,0,1-2.86,5.06,12.51,12.51,0,0,1-4.37,3.24,13.55,13.55,0,0,1-5.63,1.13m0-4.22A8.69,8.69,0,0,0,410,83.63q2.44-2.38,2.44-7.26V72q0-4.89-2.44-7.26a9.54,9.54,0,0,0-12.61,0Q394.95,67.08,395,72v4.4q0,4.88,2.44,7.26a8.65,8.65,0,0,0,6.3,2.38" transform="translate(-12.58 -10.44)"/><path class="cls-4" d="M444.33,84.58h-.24a14,14,0,0,1-1.16,2.09,7.66,7.66,0,0,1-1.69,1.82,7.94,7.94,0,0,1-2.44,1.27,10.79,10.79,0,0,1-3.33.47,9.72,9.72,0,0,1-7.56-3.06q-2.81-3.06-2.8-8.66V58.82h4.76v18.9q0,8.28,7,8.29a10.57,10.57,0,0,0,2.77-.36A7.83,7.83,0,0,0,442,84.58a5.6,5.6,0,0,0,1.67-1.82,5.39,5.39,0,0,0,.62-2.66V58.82h4.76v30.7h-4.76Z" transform="translate(-12.58 -10.44)"/><path class="cls-4" d="M459.21,58.82H464v4.94h.23a8.63,8.63,0,0,1,3.49-4.27,10.36,10.36,0,0,1,5.5-1.39,11.75,11.75,0,0,1,5.18,1.13,11.35,11.35,0,0,1,3.95,3.22,14.57,14.57,0,0,1,2.5,5,26.26,26.26,0,0,1,0,13.33,14.62,14.62,0,0,1-2.5,5.06,11.21,11.21,0,0,1-3.95,3.21,11.61,11.61,0,0,1-5.18,1.13,9.3,9.3,0,0,1-9-5.65H464v16.84h-4.76ZM471.88,86a8.21,8.21,0,0,0,6.37-2.54,9.55,9.55,0,0,0,2.32-6.67V71.54a9.52,9.52,0,0,0-2.32-6.67,8.18,8.18,0,0,0-6.37-2.54,10.3,10.3,0,0,0-3.06.45A8.38,8.38,0,0,0,466.29,64a6,6,0,0,0-1.7,1.88,4.72,4.72,0,0,0-.62,2.37V79.73a5.5,5.5,0,0,0,.62,2.66,5.85,5.85,0,0,0,1.7,2,7.55,7.55,0,0,0,2.53,1.23,11,11,0,0,0,3.06.42" transform="translate(-12.58 -10.44)"/></g></g></g></svg>