<svg xmlns="http://www.w3.org/2000/svg" viewBox="0 0 642.12 569.45"><title>services-decal-one</title><g id="Layer_2" data-name="Layer 2"><g id="Layer_1-2" data-name="Layer 1"><path d="M71.22,335.14a199.58,199.58,0,0,1,172.5-99.07s222.14,0,229.69-.1c55.44-3.68,56.82-53.22,56.53-63.12-.29-10.17-4.68-61-62.06-61H202.25L267.05,0H467.88c26,0,50.49,4.84,72.68,14.42A162.29,162.29,0,0,1,596.29,54c28.23,30.8,44.48,71.88,45.75,115.7,1.27,43.59-12.44,85.27-38.62,117.37a161,161,0,0,1-53,42.45C529,340.27,505,346.47,479.17,348c-.65,0-2,.07-4,.1l.26.72-216.27.1h-.11a114,114,0,0,0-98.39,56.16l-96,164.39L.5,458.25l-.5-.91Z"/></g></g></svg>